<svg width="40" height="40" viewBox="0 0 40 40" fill="none" xmlns="http://www.w3.org/2000/svg">
<path d="M40 20C40 29.665 31.045 37.5 20 37.5C18.0191 37.5027 16.0465 37.2455 14.1325 36.735C12.6725 37.475 9.32 38.895 3.68 39.82C3.18 39.9 2.8 39.38 2.9975 38.915C3.8825 36.825 4.6825 34.04 4.9225 31.5C1.86 28.425 0 24.4 0 20C0 10.335 8.955 2.5 20 2.5C31.045 2.5 40 10.335 40 20ZM12.5 20C12.5 19.337 12.2366 18.7011 11.7678 18.2322C11.2989 17.7634 10.663 17.5 10 17.5C9.33696 17.5 8.70107 17.7634 8.23223 18.2322C7.76339 18.7011 7.5 19.337 7.5 20C7.5 20.663 7.76339 21.2989 8.23223 21.7678C8.70107 22.2366 9.33696 22.5 10 22.5C10.663 22.5 11.2989 22.2366 11.7678 21.7678C12.2366 21.2989 12.5 20.663 12.5 20ZM22.5 20C22.5 19.337 22.2366 18.7011 21.7678 18.2322C21.2989 17.7634 20.663 17.5 20 17.5C19.337 17.5 18.7011 17.7634 18.2322 18.2322C17.7634 18.7011 17.5 19.337 17.5 20C17.5 20.663 17.7634 21.2989 18.2322 21.7678C18.7011 22.2366 19.337 22.5 20 22.5C20.663 22.5 21.2989 22.2366 21.7678 21.7678C22.2366 21.2989 22.5 20.663 22.5 20ZM30 22.5C30.663 22.5 31.2989 22.2366 31.7678 21.7678C32.2366 21.2989 32.5 20.663 32.5 20C32.5 19.337 32.2366 18.7011 31.7678 18.2322C31.2989 17.7634 30.663 17.5 30 17.5C29.337 17.5 28.7011 17.7634 28.2322 18.2322C27.7634 18.7011 27.5 19.337 27.5 20C27.5 20.663 27.7634 21.2989 28.2322 21.7678C28.7011 22.2366 29.337 22.5 30 22.5Z" fill="#3E3537"/>
</svg>
