<svg width="40" height="40" viewBox="0 0 40 40" fill="none" xmlns="http://www.w3.org/2000/svg">
<path d="M39.4531 34.5859L31.6641 26.7969C31.3125 26.4453 30.8359 26.25 30.3359 26.25H29.0625C31.2188 23.4922 32.5 20.0234 32.5 16.25C32.5 7.27344 25.2266 0 16.25 0C7.27344 0 0 7.27344 0 16.25C0 25.2266 7.27344 32.5 16.25 32.5C20.0234 32.5 23.4922 31.2187 26.25 29.0625V30.3359C26.25 30.8359 26.4453 31.3125 26.7969 31.6641L34.5859 39.4531C35.3203 40.1875 36.5078 40.1875 37.2344 39.4531L39.4453 37.2422C40.1797 36.5078 40.1797 35.3203 39.4531 34.5859ZM16.25 26.25C10.7266 26.25 6.25 21.7812 6.25 16.25C6.25 10.7266 10.7188 6.25 16.25 6.25C21.7734 6.25 26.25 10.7187 26.25 16.25C26.25 21.7734 21.7812 26.25 16.25 26.25Z" fill="#3E3537"/>
</svg>
