<svg width="40" height="40" viewBox="0 0 40 40" fill="none" xmlns="http://www.w3.org/2000/svg">
<path d="M16.25 36.25V27.4875C16.25 26.875 16.875 26.25 17.5 26.25H22.5C23.125 26.25 23.75 26.875 23.75 27.5V36.25C23.75 36.5816 23.8817 36.8995 24.1161 37.1339C24.3505 37.3683 24.6685 37.5 25 37.5H35C35.3315 37.5 35.6495 37.3683 35.8839 37.1339C36.1183 36.8995 36.25 36.5816 36.25 36.25V18.75C36.2503 18.5858 36.2182 18.4231 36.1556 18.2712C36.093 18.1194 36.001 17.9813 35.885 17.865L32.5 14.4825V6.25004C32.5 5.91852 32.3683 5.60057 32.1339 5.36615C31.8995 5.13173 31.5815 5.00004 31.25 5.00004H28.75C28.4185 5.00004 28.1005 5.13173 27.8661 5.36615C27.6317 5.60057 27.5 5.91852 27.5 6.25004V9.48254L20.885 2.86504C20.7689 2.74863 20.6309 2.65627 20.4791 2.59326C20.3272 2.53024 20.1644 2.4978 20 2.4978C19.8356 2.4978 19.6728 2.53024 19.5209 2.59326C19.3691 2.65627 19.2311 2.74863 19.115 2.86504L4.115 17.865C3.999 17.9813 3.90705 18.1194 3.84442 18.2712C3.78179 18.4231 3.74971 18.5858 3.75 18.75V36.25C3.75 36.5816 3.8817 36.8995 4.11612 37.1339C4.35054 37.3683 4.66848 37.5 5 37.5H15C15.3315 37.5 15.6495 37.3683 15.8839 37.1339C16.1183 36.8995 16.25 36.5816 16.25 36.25Z" fill="#3E3537"/>
</svg>
